<svg width="57" height="74" viewBox="0 0 57 74" fill="none" xmlns="http://www.w3.org/2000/svg">
<path d="M33.4 73.28C22.9893 73.28 14.9253 70.4213 9.208 64.704C3.576 58.9013 0.76 49.8133 0.76 37.44C0.76 28.9067 2.21067 21.952 5.112 16.576C8.01333 11.2 12.024 7.232 17.144 4.672C22.3493 2.11199 28.3227 0.831993 35.064 0.831993C39.8427 0.831993 43.9813 1.30133 47.48 2.24C51.064 3.17866 54.1787 4.28799 56.824 5.56799L51.192 20.288C48.2053 19.0933 45.3893 18.112 42.744 17.344C40.184 16.576 37.624 16.192 35.064 16.192C25.1653 16.192 20.216 23.232 20.216 37.312C20.216 44.3093 21.496 49.472 24.056 52.8C26.7013 56.128 30.3707 57.792 35.064 57.792C39.0747 57.792 42.616 57.28 45.688 56.256C48.76 55.1467 51.7467 53.6533 54.648 51.776V68.032C51.7467 69.9093 48.6747 71.232 45.432 72C42.2747 72.8533 38.264 73.28 33.4 73.28Z" fill="white"/>
</svg>
