<svg width="66" height="74" viewBox="0 0 66 74" fill="none" xmlns="http://www.w3.org/2000/svg">
<path d="M33.784 0.831993C43.4267 0.831993 51.064 3.60533 56.696 9.152C62.328 14.6133 65.144 22.4213 65.144 32.576V41.792H20.088C20.2587 47.168 21.8373 51.392 24.824 54.464C27.896 57.536 32.12 59.072 37.496 59.072C42.0187 59.072 46.1147 58.6453 49.784 57.792C53.4533 56.8533 57.2507 55.4453 61.176 53.568V68.288C57.7627 69.9947 54.136 71.232 50.296 72C46.5413 72.8533 41.976 73.28 36.6 73.28C29.6027 73.28 23.416 72 18.04 69.44C12.664 66.7947 8.44 62.8267 5.368 57.536C2.296 52.2453 0.76 45.5893 0.76 37.568C0.76 29.376 2.12533 22.592 4.856 17.216C7.672 11.7547 11.5547 7.65866 16.504 4.92799C21.4533 2.19733 27.2133 0.831993 33.784 0.831993ZM33.912 14.4C30.2427 14.4 27.1707 15.5947 24.696 17.984C22.3067 20.3733 20.8987 24.0853 20.472 29.12H47.224C47.1387 24.8533 46.0293 21.3547 43.896 18.624C41.7627 15.808 38.4347 14.4 33.912 14.4Z" fill="white"/>
</svg>
