<svg width="76" height="95" viewBox="0 0 76 95" fill="none" xmlns="http://www.w3.org/2000/svg">
<path d="M39.208 41.672H75.432V89.032C70.6533 90.6533 65.6613 91.9333 60.456 92.872C55.336 93.8107 49.4907 94.28 42.92 94.28C29.2667 94.28 18.7707 90.2693 11.432 82.248C4.09333 74.2267 0.424 62.536 0.424 47.176C0.424 37.6187 2.25867 29.3413 5.928 22.344C9.68267 15.3467 15.1013 9.928 22.184 6.088C29.2667 2.248 37.928 0.327995 48.168 0.327995C53.032 0.327995 57.8107 0.839996 62.504 1.864C67.1973 2.888 71.464 4.25333 75.304 5.96L68.904 21.448C66.088 19.9973 62.888 18.8027 59.304 17.864C55.72 16.9253 51.9653 16.456 48.04 16.456C42.408 16.456 37.5013 17.736 33.32 20.296C29.224 22.856 26.024 26.4827 23.72 31.176C21.5013 35.784 20.392 41.2453 20.392 47.56C20.392 53.5333 21.2027 58.824 22.824 63.432C24.4453 68.04 27.0053 71.6667 30.504 74.312C34.0027 76.872 38.568 78.152 44.2 78.152C46.9307 78.152 49.2347 78.024 51.112 77.768C53.0747 77.512 54.8667 77.2133 56.488 76.872V57.8H39.208V41.672Z" fill="white"/>
</svg>
