<svg width="66" height="98" viewBox="0 0 66 98" fill="none" xmlns="http://www.w3.org/2000/svg">
<path d="M20.056 20.56C20.056 23.9733 19.928 27.2587 19.672 30.416C19.5013 33.5733 19.3307 35.792 19.16 37.072H20.184C22.4027 33.488 25.2613 30.8853 28.76 29.264C32.2587 27.6427 36.1413 26.832 40.408 26.832C48.0027 26.832 54.0613 28.88 58.584 32.976C63.192 36.9867 65.496 43.472 65.496 52.432V98H46.424V57.168C46.424 47.0987 42.6693 42.064 35.16 42.064C29.4427 42.064 25.4747 44.0693 23.256 48.08C21.1227 52.0053 20.056 57.68 20.056 65.104V98H0.984V0.719994H20.056V20.56Z" fill="white"/>
</svg>
