<svg width="69" height="74" viewBox="0 0 69 74" fill="none" xmlns="http://www.w3.org/2000/svg">
<path d="M68.472 36.928C68.472 48.5333 65.4 57.4933 59.256 63.808C53.1973 70.1227 44.92 73.28 34.424 73.28C27.9387 73.28 22.136 71.872 17.016 69.056C11.9813 66.24 8.01333 62.144 5.112 56.768C2.21067 51.3067 0.76 44.6933 0.76 36.928C0.76 25.3227 3.78933 16.4053 9.848 10.176C15.9067 3.94666 24.2267 0.831993 34.808 0.831993C41.3787 0.831993 47.1813 2.24 52.216 5.056C57.2507 7.872 61.2187 11.968 64.12 17.344C67.0213 22.6347 68.472 29.1627 68.472 36.928ZM20.216 36.928C20.216 43.84 21.3253 49.088 23.544 52.672C25.848 56.1707 29.56 57.92 34.68 57.92C39.7147 57.92 43.3413 56.1707 45.56 52.672C47.864 49.088 49.016 43.84 49.016 36.928C49.016 30.016 47.864 24.8533 45.56 21.44C43.3413 17.9413 39.672 16.192 34.552 16.192C29.5173 16.192 25.848 17.9413 23.544 21.44C21.3253 24.8533 20.216 30.016 20.216 36.928Z" fill="white"/>
</svg>
