<svg width="47" height="72" viewBox="0 0 47 72" fill="none" xmlns="http://www.w3.org/2000/svg">
<path d="M40.024 0.831993C40.9627 0.831993 42.072 0.874662 43.352 0.959999C44.632 1.04533 45.656 1.17333 46.424 1.34399L45.016 19.264C44.4187 19.0933 43.5227 18.9653 42.328 18.88C41.2187 18.7093 40.2373 18.624 39.384 18.624C36.1413 18.624 33.0267 19.2213 30.04 20.416C27.0533 21.5253 24.6213 23.36 22.744 25.92C20.952 28.48 20.056 31.9787 20.056 36.416V72H0.984V2.112H15.448L18.264 13.888H19.16C21.208 10.304 24.024 7.232 27.608 4.672C31.192 2.11199 35.3307 0.831993 40.024 0.831993Z" fill="white"/>
</svg>
