<svg width="61" height="95" viewBox="0 0 61 95" fill="none" xmlns="http://www.w3.org/2000/svg">
<path d="M60.408 67.656C60.408 75.7627 57.464 82.248 51.576 87.112C45.7733 91.8907 37.496 94.28 26.744 94.28C17.1013 94.28 8.48267 92.4453 0.888 88.776V70.728C5.24 72.6053 9.72 74.3547 14.328 75.976C19.0213 77.512 23.672 78.28 28.28 78.28C33.0587 78.28 36.4293 77.384 38.392 75.592C40.44 73.7147 41.464 71.368 41.464 68.552C41.464 66.248 40.6533 64.2853 39.032 62.664C37.496 61.0427 35.4053 59.5493 32.76 58.184C30.1147 56.7333 27.0853 55.1973 23.672 53.576C21.5387 52.552 19.2347 51.3573 16.76 49.992C14.2853 48.5413 11.896 46.792 9.592 44.744C7.37333 42.6107 5.53867 40.0507 4.088 37.064C2.63733 34.0773 1.912 30.4933 1.912 26.312C1.912 18.12 4.68533 11.7627 10.232 7.24C15.7787 2.632 23.3307 0.327995 32.888 0.327995C37.6667 0.327995 42.1893 0.882662 46.456 1.992C50.808 3.10133 55.3307 4.68 60.024 6.728L53.752 21.832C49.5707 20.1253 45.816 18.8027 42.488 17.864C39.16 16.9253 35.7467 16.456 32.248 16.456C28.5787 16.456 25.7627 17.3093 23.8 19.016C21.8373 20.7227 20.856 22.9413 20.856 25.672C20.856 28.9147 22.3067 31.4747 25.208 33.352C28.1093 35.2293 32.4187 37.5333 38.136 40.264C42.8293 42.4827 46.7973 44.7867 50.04 47.176C53.368 49.5653 55.928 52.3813 57.72 55.624C59.512 58.8667 60.408 62.8773 60.408 67.656Z" fill="white"/>
</svg>
